<svg width="31" height="29" viewBox="0 0 31 29" fill="none" xmlns="http://www.w3.org/2000/svg">
<path d="M24.1587 1.16374C23.8594 0.958618 23.478 0.941037 23.1553 1.12271C21.4009 2.13072 19.7052 3.28524 18.1034 4.55698C17.8922 4.72693 17.7631 4.97893 17.7513 5.24852C17.7396 5.5181 17.8452 5.78183 18.0388 5.96936C21.3599 9.12818 25.96 18.8156 27.0162 23.2696C24.7278 19.4017 19.6231 10.3003 16.2845 7.18835C15.9265 6.8543 15.3633 6.8543 15.0053 7.18835C11.6608 10.3003 6.5737 19.4075 4.28536 23.2813C5.34152 18.8273 9.92992 9.12818 13.2509 5.96936C13.4504 5.78183 13.5561 5.5181 13.5443 5.24852C13.5326 4.97893 13.4035 4.72693 13.1923 4.55698C11.5904 3.28524 9.88885 2.13072 8.14033 1.12271C7.82935 0.941037 7.43622 0.958618 7.13698 1.16374C3.05905 3.97093 0.624023 8.58315 0.624023 13.506C0.624023 17.1043 1.92075 20.5738 4.28536 23.2813C7.11351 26.5984 11.2501 28.5089 15.6449 28.5089C20.0397 28.5089 24.1822 26.6042 27.0162 23.2755C29.369 20.5796 30.6658 17.1102 30.6658 13.506C30.6658 8.58315 28.2307 3.97093 24.1587 1.16374Z" fill="#FFB548"/>
</svg>
